<svg xmlns="http://www.w3.org/2000/svg" width="1600" height="900" viewBox="0 0 1600 900" fill="none">
  <defs>
    <linearGradient id="bg" x1="0" y1="0" x2="1600" y2="900" gradientUnits="userSpaceOnUse">
      <stop offset="0" stop-color="#07111F"/>
      <stop offset="0.45" stop-color="#0A1730"/>
      <stop offset="1" stop-color="#10244C"/>
    </linearGradient>
    <radialGradient id="glowBlue" cx="0" cy="0" r="1" gradientUnits="userSpaceOnUse" gradientTransform="translate(1210 180) rotate(128) scale(520 340)">
      <stop stop-color="#3FB8FF" stop-opacity="0.55"/>
      <stop offset="1" stop-color="#3FB8FF" stop-opacity="0"/>
    </radialGradient>
    <radialGradient id="glowGold" cx="0" cy="0" r="1" gradientUnits="userSpaceOnUse" gradientTransform="translate(1380 720) rotate(180) scale(430 290)">
      <stop stop-color="#FFB357" stop-opacity="0.28"/>
      <stop offset="1" stop-color="#FFB357" stop-opacity="0"/>
    </radialGradient>
    <radialGradient id="glowTeal" cx="0" cy="0" r="1" gradientUnits="userSpaceOnUse" gradientTransform="translate(1110 650) rotate(180) scale(470 250)">
      <stop stop-color="#45E0C5" stop-opacity="0.18"/>
      <stop offset="1" stop-color="#45E0C5" stop-opacity="0"/>
    </radialGradient>
    <linearGradient id="trailA" x1="832" y1="244" x2="1452" y2="404" gradientUnits="userSpaceOnUse">
      <stop stop-color="#58C3FF" stop-opacity="0"/>
      <stop offset="0.35" stop-color="#58C3FF" stop-opacity="0.45"/>
      <stop offset="0.7" stop-color="#8B8CFF" stop-opacity="0.24"/>
      <stop offset="1" stop-color="#58C3FF" stop-opacity="0"/>
    </linearGradient>
    <linearGradient id="trailB" x1="772" y1="642" x2="1456" y2="514" gradientUnits="userSpaceOnUse">
      <stop stop-color="#45E0C5" stop-opacity="0"/>
      <stop offset="0.35" stop-color="#45E0C5" stop-opacity="0.34"/>
      <stop offset="0.8" stop-color="#FFB357" stop-opacity="0.18"/>
      <stop offset="1" stop-color="#FFB357" stop-opacity="0"/>
    </linearGradient>
    <linearGradient id="meshLine" x1="812" y1="80" x2="1500" y2="820" gradientUnits="userSpaceOnUse">
      <stop stop-color="#7BD1FF" stop-opacity="0.28"/>
      <stop offset="1" stop-color="#69E0CA" stop-opacity="0.14"/>
    </linearGradient>
    <filter id="blur40" x="-200" y="-200" width="2000" height="1300" filterUnits="userSpaceOnUse" color-interpolation-filters="sRGB">
      <feGaussianBlur stdDeviation="40"/>
    </filter>
    <filter id="blur18" x="-100" y="-100" width="1800" height="1100" filterUnits="userSpaceOnUse" color-interpolation-filters="sRGB">
      <feGaussianBlur stdDeviation="18"/>
    </filter>
    <filter id="blur8" x="-50" y="-50" width="1700" height="1000" filterUnits="userSpaceOnUse" color-interpolation-filters="sRGB">
      <feGaussianBlur stdDeviation="8"/>
    </filter>
    <linearGradient id="fadeLeft" x1="0" y1="0" x2="980" y2="0" gradientUnits="userSpaceOnUse">
      <stop stop-color="#07111F" stop-opacity="0.96"/>
      <stop offset="0.55" stop-color="#07111F" stop-opacity="0.74"/>
      <stop offset="1" stop-color="#07111F" stop-opacity="0"/>
    </linearGradient>
  </defs>

  <rect width="1600" height="900" fill="url(#bg)"/>
  <g opacity="0.38">
    <path d="M0 96H1600M0 224H1600M0 352H1600M0 480H1600M0 608H1600M0 736H1600" stroke="#9FC3FF" stroke-opacity="0.08"/>
    <path d="M160 0V900M352 0V900M544 0V900M736 0V900M928 0V900M1120 0V900M1312 0V900M1504 0V900" stroke="#9FC3FF" stroke-opacity="0.06"/>
  </g>

  <g filter="url(#blur40)">
    <ellipse cx="1210" cy="180" rx="420" ry="230" fill="url(#glowBlue)"/>
    <ellipse cx="1360" cy="720" rx="350" ry="210" fill="url(#glowGold)"/>
    <ellipse cx="1080" cy="650" rx="390" ry="180" fill="url(#glowTeal)"/>
  </g>

  <g filter="url(#blur18)" opacity="0.95">
    <path d="M848 258C944 230 1060 226 1178 252C1298 278 1396 330 1474 390" stroke="url(#trailA)" stroke-width="22" stroke-linecap="round"/>
    <path d="M788 664C922 650 1038 622 1158 576C1268 534 1368 488 1462 438" stroke="url(#trailB)" stroke-width="18" stroke-linecap="round"/>
  </g>

  <g opacity="0.9">
    <path d="M930 172L1088 140L1214 224L1362 196L1450 318L1338 446L1168 470L1032 372L930 172Z" stroke="url(#meshLine)" stroke-width="2"/>
    <path d="M880 514L1044 430L1196 472L1328 598L1260 738L1052 764L910 670L880 514Z" stroke="url(#meshLine)" stroke-width="2"/>
    <path d="M1088 140L1168 470M1214 224L1032 372M1362 196L1338 446M1044 430L1196 472M1196 472L1260 738M1032 372L1044 430M1338 446L1328 598" stroke="url(#meshLine)" stroke-width="1.5" stroke-opacity="0.95"/>
  </g>

  <g filter="url(#blur8)">
    <circle cx="930" cy="172" r="11" fill="#45E0C5" fill-opacity="0.72"/>
    <circle cx="1088" cy="140" r="10" fill="#58C3FF" fill-opacity="0.84"/>
    <circle cx="1214" cy="224" r="13" fill="#FFB357" fill-opacity="0.86"/>
    <circle cx="1362" cy="196" r="10" fill="#F36C6C" fill-opacity="0.76"/>
    <circle cx="1450" cy="318" r="12" fill="#58C3FF" fill-opacity="0.78"/>
    <circle cx="1338" cy="446" r="13" fill="#45E0C5" fill-opacity="0.76"/>
    <circle cx="1168" cy="470" r="12" fill="#FFFFFF" fill-opacity="0.68"/>
    <circle cx="1032" cy="372" r="10" fill="#58C3FF" fill-opacity="0.7"/>
    <circle cx="880" cy="514" r="11" fill="#45E0C5" fill-opacity="0.58"/>
    <circle cx="1044" cy="430" r="9" fill="#FFFFFF" fill-opacity="0.58"/>
    <circle cx="1196" cy="472" r="14" fill="#FFB357" fill-opacity="0.78"/>
    <circle cx="1328" cy="598" r="12" fill="#58C3FF" fill-opacity="0.74"/>
    <circle cx="1260" cy="738" r="15" fill="#45E0C5" fill-opacity="0.64"/>
    <circle cx="1052" cy="764" r="12" fill="#FFFFFF" fill-opacity="0.56"/>
    <circle cx="910" cy="670" r="10" fill="#F36C6C" fill-opacity="0.5"/>
  </g>

  <g opacity="0.28">
    <path d="M1002 258C1088 246 1178 266 1268 314C1356 360 1428 424 1492 512" stroke="#A9D7FF" stroke-opacity="0.22" stroke-width="1.5" stroke-dasharray="3 10"/>
    <path d="M944 690C1074 654 1192 596 1310 500C1370 450 1432 394 1490 310" stroke="#7DE8D3" stroke-opacity="0.2" stroke-width="1.5" stroke-dasharray="3 10"/>
  </g>

  <rect width="980" height="900" fill="url(#fadeLeft)"/>
</svg>
